@startuml DIAGRAMA RELACIONAL SS
skinparam linetype ortho

' =====================
' ENTIDADES
' =====================

entity usuario {
  +id : INT <<PK>>
  --
  rol : VARCHAR(20)
  'GR 01
  correo_institucional : VARCHAR(35) <<UQ>>
  nombre : VARCHAR(50)
  apellidos : VARCHAR(50)
  contraseña : VARCHAR(255)
  'CRED 01
  intentos_fallidos : TINY INT UNSIGNED
  cuenta_bloqueada : TINY INT(1) 
  fecha_bloqueo : DATETIME NULL
  'cred 03
  fecha_creacion : DATETIME
  creado_por_id: INT UNSIGNED NULL <<FK>>
  'REP-01, REP-05 
  'ejemplo de ruta para rubrica_imagen: /storage/rubricas/usuario_123.png
  rubrica_imagen : VARCHAR(500)
  rubrica_hash: VARCHAR(64)
  rubrica_ip: VARCHAR(45) 
  rubrica_fecha_registro: DATETIME
}

entity alumno {
  +  boleta: char(10) UNIQUE <<PK>>
  --
  usuario_id : INT UNIQUE <<FK>>
  celular : VARCHAR(10)
  carrera : VARCHAR(3)
  creditos : TINY INT UNSIGNED
  semestre : TINY INT UNSIGNED 
  'ADM-03, ADM-04
  correo_personal : VARCHAR(50) NULL

}

entity profesor{
  +id : INT <<PK>>
  --
  usuario_id : INT UNIQUE <<FK>>
  'CRED-04 
  departamento : VARCHAR(100)
  'ADM-01, ADM-12
  telefono_personal : VARCHAR(10) NULL
  horario_atencion : VARCHAR(100)
  cubiculo : VARCHAR(100)
  'ADM-18
  cupos_autorizados : TINYINT UNSIGNED
}

entity coordinador {
  +id : INT <<PK>>
  --
  usuario_id : INT UNIQUE <<FK>>
}

entity inicio_sesion {
  +id : INT <<PK>>
  --
  usuario_id : INT UNSIGNED <<FK>>
  fecha_hora : DATETIME
  ip_acceso : VARCHAR(45)
  resultado : TINY INT(1)
} 

entity token_contraseña{
  +id : INT <<PK>>
  --
  usuario_id : INT UNSIGNED <<FK>>
  token : VARCHAR(255)
  fecha_expiracion : DATETIME
  usado: TINY INT(1)
}

entity oferta_servicio{
  +id : INT <<PK>>
  --
  profesor_id : INT <<FK>>
  coordinador_id : INT <<FK>>
  'GR-02
  cupos_ofertados: TINY INT UNSIGNED
  cupos_disponibles: TINY INT UNSIGNED
  'GR-04 y *PRO-01
  nombre_SISS: VARCHAR(100)
  'LSS-01  
  estado_oferta: VARCHAR(20)
  'PRO-01
  nombre_proyecto : VARCHAR(150)
  tipo_oferta : ENUM('individual','proyecto')
  descripcion_actividades: TEXT
  cupos_solicitados: TINY INT UNSIGNED NULL
  fecha_registro : DATETIME
  'PRO-02
  cupos_autorizados: TINY INT UNSIGNED
  motivo_rechazo : TEXT NULL
}
'estados: pendiente_revision, aprobada, rechazada, pendiente_correccion, inactiva, concluida

entity solicitud_registro {
  +id : INT <<PK>>
  --
  alumno_id : INT UNIQUE <<FK>>
  carrera_id : INT <<FK>>
  'GR-01
  dictamen : TINY INT UNSIGNED NULL
  periodo_registro_id : INT <<FK>>
  oferta_id : INT <<FK>>
  motivacion_oferta : TEXT
  estado_solicitud : VARCHAR(50)
  estado_anterior : VARCHAR(50)
  fecha_aplicacion : DATETIME
  'GR-02
  tipo_rechazo: VARCHAR(50) NULL
  motivo_rechazo : TEXT NULL
  'GR-04
  registro_siss : TINYINT (1)
  'GR-05
  docs_iniciales : TINYINT (1)
  'GR-08
  carta_compromiso : TINYINT (1)
  'GR-11
  expediente: TINYINT (1)
}


entity actividad {
  +id : INT <<PK>>
  --
  solicitud_registro_id : INT <<FK>>
  'AH-01
  titulo : VARCHAR(150)
  descripcion : TEXT
  entregable_esperado : TEXT
  fecha_limite : DATE
  estado : VARCHAR(20)
  fecha_asignacion : DATETIME
  'AH-02
  porcentaje_progreso : TINYINT UNSIGNED
  fecha_completada : DATETIME NULL
  'AH-06
  fecha_limite_original : DATE NULL
}
'estado: sin_comenzar, en_progreso, vencida, completada_en_tiempo, completada_fuera_de_tiempo

entity bitacora {
  +id : INT <<PK>>
  --
  solicitud_registro_id : INT <<FK>>
  'AH-03
  hora_inicio : DATETIME
  hora_fin : DATETIME
  horas_contabilizadas : TINYINT UNSIGNED
  estado : VARCHAR(30)
  fecha_registro : DATE
  'AH-04
  motivo_rechazo : TEXT NULL
  fecha_revision : DATETIME NULL
  revisado_por_id : INT <<FK>> NULL
}
'ESTADO: En curso, Pendiente de revisión, Aprobada, Rechazada


entity registro_bitacora_actividades {
  +id : INT <<PK>>
  --
  bitacora_id : INT <<FK>>
  actividad_id : INT <<FK>>
  'AH-03
  descripcion : TEXT
  porcentaje_avance_registrado : TINYINT UNSIGNED
  evidencia : TEXT
  --
  <<UNIQUE>> (bitacora_id, actividad_id)
}

entity reporte_mensual{
  +id : INT <<PK>>
  --
  solicitud_registro_id : INT <<FK>>
  documento_id : INT UNIQUE <<FK>>
  'REP-01
  num_reporte : TINYINT UNSIGNED
  actividades_mes: TEXT
  estado_reporte: VARCHAR(35)
}

entity reporte_global{
  +id : INT <<PK>>
  --
  solicitud_registro_id : INT <<FK>>
  documento_id : INT UNIQUE <<FK>>
  'REP-07
  actividades_resumen: TEXT
  estado_reporte: VARCHAR(35)
}

entity revision_reporte_mensual {
  +id : INT <<PK>>
  --
  reporte_mensual_id : INT <<FK>>
  usuario_id : INT <<FK>>
  tipo_revisor: ENUM('alumno','profesor','coordinador')
  estado: ENUM('aprobado','rechazado')
  comentario: TEXT NULL 
  hash_documento: VARCHAR(64) NULL
  hash_rubrica: VARCHAR(64) NULL
  ip_firma: VARCHAR(45) NULL
  token_tsa: VARCHAR(255) NULL
  fecha: DATETIME
}

entity revision_reporte_global {
  +id : INT <<PK>>
  --
  reporte_global_id : INT <<FK>>
  usuario_id : INT <<FK>>
  tipo_revisor: ENUM('alumno','profesor','coordinador')
  estado: ENUM('aprobado','rechazado')
  comentario: TEXT NULL
  hash_documento: VARCHAR(64) NULL
  hash_rubrica: VARCHAR(64) NULL
  ip_firma: VARCHAR(45) NULL
  token_tsa: VARCHAR(255) NULL
  fecha: DATETIME
}

entity documento {
  +id : INT <<PK>>
  --
  alumno_id : INT <<FK>>
  creador_id : INT <<FK>>

  'GR-05, en REP-01 y 07 tipo_documento: 'reporte_mensual' y 'reporte_global' 
  'ruta_archivo y fecha_creacion tambien para reportes
  tipo_documento : VARCHAR(50)

  fecha_creacion : DATETIME
  estado_documento : VARCHAR (20)
  ruta_archivo : VARCHAR(255) 
  'GR-07
  aprobado_por_id : INT <<FK>> NULL
  'GR-10
  nombre_expediente: VARCHAR(100) NULL
}

'estado_documento puede ser: "en revision", "aprobado", "rechazado", "con_correciones"

entity cumulo_horas_y_faltas {
  +id : INT <<PK>>
  --
  alumno_id : INT UNIQUE <<FK>>
  'AH-03
  horas_acumuladas : SMALLINT UNSIGNED
  horas_rechazadas : SMALLINT UNSIGNED
  'AH-04
  faltas_acumuladas : TINYINT UNSIGNED
  faltas_consecutivas : TINYINT UNSIGNED
}

' carrera DESEADO
entity carrera {
  +id : INT <<PK>>
  --
  nombre : VARCHAR
}

entity deseo_de_carrera {
  + id : INT <<PK>>
  --
  oferta_id : INT <<FK>>
  carrera_id : INT <<FK>>
  --
  <<UNIQUE>> (oferta_id, carrera_id)
}

' profesorCARACTERISTICA

entity caracteristica {
  +id : INT <<PK>>
  --
'ADM-17
  nombre : ENUM('Presidente de academia','Coordinador','Jefe de departamento','Investigador')
}

entity solicitud_caracteristica {
  +id : INT <<PK>>
  --
  profesor_id : INT <<FK>>
  caracteristica_id : INT <<FK>>
'ADM-17
  justificacion : TEXT
  estado : VARCHAR(30)
  fecha : DATETIME
  'ADM-18
  cupos_adicionales : TINYINT UNSIGNED NULL
  comentario : TEXT NULL
  fecha_respuesta : DATETIME NULL
}
'estados: pendiente, aprobada, rechazada

' CALENDARIO

entity evento_calendario{
  +id : INT <<PK>>
  --
  coordinador_id : INT <<FK>>
  'ADM-09
  nombre : VARCHAR(150)
  tipo : ENUM('Vacacional','Inhabil','Prestacion')
  fecha : DATE NULL
  hora : TIME NULL
  fecha_inicio : DATE NULL
  fecha_fin : DATE NULL
  'solo para Prestacion
  anio : CHAR(4) NULL
  semestre : ENUM('01','02') NULL
  fecha_max_expediente : DATE NULL
}

' RECURSO
entity recurso {
  +id : INT <<PK>>
  --
  coordinador_id : INT <<FK>>
  'ADM-06
  nombre : VARCHAR(150)
  url : VARCHAR(500)
  fecha_registro : DATETIME
  fecha_actualizacion : DATETIME NULL
}

entity contacto_institucional{
  +id : INT <<PK>>
  --
  coordinador_id : INT <<FK>>
  'ADM-07
  tipo : ENUM('correo','telefono','ubicacion','horario')
  valor : VARCHAR(255)
  fecha_actualizacion : DATETIME
}

entity periodo_registro {
  +id : INT <<PK>>
  --
}

' ANUNCIOS
entity anuncio {
  +id : INT <<PK>>
  --
  usuario_id : INT <<FK>>
  'ADM-08, ADM-11
  titulo : VARCHAR(150)
  contenido : TEXT
  fecha_publicacion : DATETIME
  origen : ENUM('coordinacion','profesor')
}

entity registro_anuncio_visto {
  +id : INT <<PK>>
  --
  alumno_id : INT <<FK>>
  anuncio_id : INT <<FK>>
  --
  'ADM-02
  leido : TINYINT(1)
  <<UNIQUE>> (alumno_id, anuncio_id)
}

' LSS
entity liberacion_proceso {
  +id : INT <<PK>>
  --
  solicitud_registro_id : INT UNIQUE <<FK>>
  'LSS-01
  estado : VARCHAR(50)
  fecha_inicio : DATETIME
  reportes_validados_siss : TINYINT(1)
  'LSS-02
  evaluacion_subida_siss : TINYINT(1) NULL
  evaluacion_descargada : TINYINT(1) NULL 
  'LSS-05
  carta_termino_recogida : TINYINT(1) NULL 
  'LSS-07
  expediente_enviado : TINYINT(1) NULL
  observaciones_rechazo : TEXT NULL
}

entity evaluacion_desempeño {
  +id : INT <<PK>>
  --
  documento_id : INT UNIQUE <<FK>>
  liberacion_proceso_id : INT UNIQUE <<FK>>
  'LSS-03
  estado : VARCHAR(50)
  observaciones_profesor : TEXT NULL
  reportes_siss_confirmados : TINYINT(1)
  fecha_evaluacion : DATETIME NULL
  motivo_rechazo_coordinacion : TEXT NULL
}
'evaluacion_solicitada
'rechazada_por_siss
'pendiente_dictamen
'devuelta_para_correccion
'firmada_coordinacion

entity revision_desempeño {
  +id : INT <<PK>>
  --
  evaluacion_desempeño_id : INT <<FK>>
  usuario_id : INT <<FK>>
  'LSS-02
  tipo_revisor : VARCHAR(20)
  estado : VARCHAR(20)
  comentario : TEXT NULL
  hash_documento : VARCHAR(255) NULL
  hash_rubrica : VARCHAR(255) NULL
  ip_firma : VARCHAR(45) NULL
  token_tsa : VARCHAR(255) NULL
  fecha : DATETIME
}
'tipo revisor puede ser: alumno, profesor, coordinador
'estado puede ser: aprobado


entity solicitud_baja {
  +id : INT <<PK>>
  --
  alumno_id <<FK>>       
  solicitante_id <<FK>>
  coordinador_id <<FK>>
  estado : VARCHAR(12)
  motivo : TEXT
  fecha : DATETIME
  'ADM-13
  expediente_pdf : VARCHAR(500) NULL
}
'estados: pendiente, en_revision, aprobada

'ADM-05 
entity solicitud_baja_proyecto{
  +id : INT <<PK>>
  --
  alumno_id : INT <<FK>>
  oferta_id : INT <<FK>>
  coordinador_id : INT <<FK>> NULL
  'ADM-05
  estado : VARCHAR(12)
  motivo : TEXT
  fecha : DATETIME
}
'estados: pendiente, aprobada, rechazada

entity carta_termino {
  +id : INT <<PK>>
  --
  liberacion_proceso_id : INT UNIQUE <<FK>>
  'LSS-05
  estado : VARCHAR(50)
  carta_recogida : TINYINT(1)
  fecha_disponible : DATETIME NULL
  fecha_recogida : DATETIME NULL
  'LSS-06
  fecha_solicitud : DATETIME
}



' =====================
' RELACIONES
' =====================

'SOLICITUD DE BAJA
alumno ||--|| solicitud_baja : "1:1 \n corresponde"
usuario ||--o{ solicitud_baja : "1:N \n solicita"
coordinador ||--o{ solicitud_baja : "1:N \n gestiona"


' USUARIO 
usuario ||--o{ token_contraseña : "1:N \n genera"
usuario ||--o{ inicio_sesion : "1:N \n registra"


usuario ||--|| alumno: "1:1 \n es un"

usuario ||--|| profesor: "1:1 \n es un"
usuario ||--|| coordinador : "1:1 \n es un"


usuario ||--o{ anuncio : "1:N \n publica"
usuario ||--o{ documento : "1:N \n crea"
usuario ||--o{ revision_reporte_mensual : "1:N \n registra"
usuario ||--o{ revision_reporte_global : "1:N \n registra"



' REPORTE
reporte_mensual ||--o{ revision_reporte_mensual : "1:N \n tiene"

reporte_mensual ||--|| documento : "1:1 \n es un"

reporte_global ||--o{ revision_reporte_global : "1:N \n resume"
reporte_global ||--|| documento : "1:1 \n es un"




'ALUMNO
alumno ||--o{ documento : "1:N \n corresponde"
alumno ||--|| cumulo_horas_y_faltas : "1:1 \n tiene"
alumno ||--o{ registro_anuncio_visto : "1:N \n genera"
alumno ||--|| solicitud_registro : "1:1 \n corresponde"
'ADM
alumno ||--o{ solicitud_baja_proyecto : "1:N \n solicita"

'ANUNCIO
anuncio ||--o{ registro_anuncio_visto : "1:N \n tiene"

' PROFESOR
profesor ||--o{ oferta_servicio: "1:N \n corresponde"
profesor ||--o{ solicitud_caracteristica : "1:N \n tiene"  
profesor ||--o{ bitacora : "1:N \n revisa"
profesor ||--o{ actividad : "1:N \n asigna"

'CARACTERISTICA
caracteristica ||--o{ solicitud_caracteristica : "1:N \n corresponde"

'OFERTA
oferta_servicio ||--o{ deseo_de_carrera : "1:N \n registra"
oferta_servicio ||--o{ solicitud_registro: "1:N \n tiene"
'ADM
oferta_servicio ||--o{ solicitud_baja_proyecto : "1:N \n registra"

'COORDINADOR
coordinador ||--o{ oferta_servicio: "1:N \n revisa"
coordinador ||--o{ recurso: "1:N \n gestiona "
coordinador ||--o{ evento_calendario: "1:N \n gestiona"
coordinador |o--o{ solicitud_baja_proyecto : "1:N \n gestiona"

coordinador ||--o{ usuario : "1:N \n crea"
coordinador ||--o{ documento : "1:N \n revisa"

coordinador ||--o{ contacto_institucional : "1:N \n gestiona"

'CARRERA
carrera ||--o{ deseo_de_carrera : "1:N \n se requiere"
carrera ||--o{ solicitud_registro: "1:N \n se requiere"

' SOLICITUD
solicitud_registro }o--|| periodo_registro : "N:1 \n escoge"
solicitud_registro ||--o{ bitacora : "1:N \n le corresponde"
solicitud_registro ||--o{ actividad : "1:N \n le corresponde"
solicitud_registro ||--|| liberacion_proceso : "1:1 \n solicita"
solicitud_registro ||--o{ reporte_mensual: "1:N \n le corresponde"
solicitud_registro ||--|| reporte_global: "1:1 \n le corresponde"


' BITACORA
bitacora ||--o{ registro_bitacora_actividades : "1:N \n contiene"
actividad ||--o{ registro_bitacora_actividades : "1:N \n es registrada en"


'EVALUACIÓN_DESEMPEÑO
evaluacion_desempeño ||--|| documento : "1:1 \n es un"
evaluacion_desempeño ||--o{ revision_desempeño : "1:N \n tiene"
usuario ||--o{ revision_desempeño : "1:N \n registra"

'LIBERACIÓN_PROCESO
liberacion_proceso ||--|| evaluacion_desempeño : "1:1 \n corresponde"
liberacion_proceso ||--|| carta_termino : "1:1 \n tiene"



@enduml